<?xml version="1.0" encoding="UTF-8"?>
<svg id="Layer_1" data-name="Layer 1" xmlns="http://www.w3.org/2000/svg" viewBox="0 0 124.84 79.54">
  <defs>
    <style>
      .cls-1 {
        fill: #231f20;
      }

      .cls-1, .cls-2, .cls-3, .cls-4 {
        stroke-width: 0px;
      }

      .cls-2 {
        fill: #d3d2c2;
      }

      .cls-3 {
        fill: #be1e2d;
      }

      .cls-4 {
        fill: #fff;
      }
    </style>
  </defs>
  <polygon class="cls-4" points="0 69.41 1.53 69.41 5.22 75.19 5.24 75.19 5.24 69.41 6.77 69.41 6.77 77.89 5.22 77.89 1.55 72.09 1.52 72.09 1.52 77.89 0 77.89 0 69.41 0 69.41"/>
  <path class="cls-4" d="m8.02,76.16c0-1.18,1.07-1.88,2.25-1.88h1.62v-.56c0-.64-.43-.92-1.17-.92-.63,0-1.09.21-1.09.61v.21h-1.31v-.17c0-1.33,1.27-1.78,2.41-1.78,1.36,0,2.6.45,2.6,1.94v2.96c0,.27.04,1.18.11,1.31h-1.44c-.02-.09-.05-.46-.06-.56h-.02c-.54.56-1,.68-1.78.68-1.26,0-2.12-.69-2.12-1.84h0Zm3.87-.52v-.3h-1.43c-.62,0-1.02.21-1.02.75s.42.77,1.09.77c1.17,0,1.36-.57,1.36-1.23h0Z"/>
  <path class="cls-4" d="m14.77,71.8h1.42v1.01h.02c.36-.64,1.26-1.13,1.99-1.13.15,0,.33,0,.49.04v1.33c-.19-.04-.34-.04-.55-.04-1.09,0-1.91.63-1.91,1.76v3.12h-1.45v-6.09h0Z"/>
  <path class="cls-4" d="m19.69,69.32h1.45v1.55h-1.45v-1.55h0Zm0,2.47h1.45v6.09h-1.45v-6.09h0Z"/>
  <path class="cls-4" d="m22.7,71.8h1.4v.74h.02c.42-.56,1.01-.86,1.72-.86.81,0,1.36.32,1.74.9h.01c.43-.55,1.05-.9,1.88-.9,1.13,0,2.13.65,2.13,2.14v4.07h-1.45v-3.54c0-.82-.29-1.39-1.11-1.39s-1.17.63-1.17,1.43v3.51h-1.45v-3.52c0-.77-.23-1.42-1.11-1.42-.51,0-1.18.35-1.18,1.36v3.58h-1.45v-6.09h0Z"/>
  <path class="cls-4" d="m32.77,76.16c0-1.18,1.07-1.88,2.25-1.88h1.62v-.56c0-.64-.43-.92-1.17-.92-.63,0-1.09.21-1.09.61v.21h-1.31v-.17c0-1.33,1.27-1.78,2.41-1.78,1.36,0,2.6.45,2.6,1.94v2.96c0,.27.04,1.18.11,1.31h-1.44c-.02-.09-.05-.46-.06-.56h-.02c-.54.56-1,.68-1.78.68-1.26,0-2.12-.69-2.12-1.84h0Zm3.87-.52v-.3h-1.43c-.62,0-1.02.21-1.02.75s.42.77,1.09.77c1.17,0,1.36-.57,1.36-1.23h0Z"/>
  <path class="cls-4" d="m39.6,71.8h1.42v.75h.02c.4-.58,1.05-.87,1.72-.87,1.37,0,2.13.86,2.13,2.31v3.9h-1.45v-3.53c0-.92-.39-1.4-1.13-1.4-.8,0-1.26.49-1.26,1.52v3.41h-1.45v-6.09h0Z"/>
  <path class="cls-4" d="m49.44,69.41h3.45c1.64,0,2.88.93,2.88,2.67,0,1.3-.87,2.64-2.79,2.64h-1.95v3.17h-1.58v-8.48h0Zm3.26,3.97c.92,0,1.52-.44,1.52-1.32,0-1-.67-1.32-1.55-1.32h-1.65v2.64h1.68Z"/>
  <path class="cls-4" d="m56.37,75.64v-1.39c0-1.65,1.4-2.56,2.75-2.56,1.47,0,2.79.98,2.79,2.53v1.25c0,1.65-1.4,2.56-2.75,2.56-1.47,0-2.79-.83-2.79-2.39h0Zm4.07-.04v-1.51c0-.74-.57-1.17-1.32-1.17-.61,0-1.27.32-1.27,1.2v1.5c0,.74.57,1.18,1.32,1.18.61,0,1.27-.32,1.27-1.2h0Z"/>
  <path class="cls-4" d="m63.2,69.32h1.45v1.55h-1.45v-1.55h0Zm0,2.47h1.45v6.09h-1.45v-6.09h0Z"/>
  <path class="cls-4" d="m66.22,71.8h1.42v.75h.02c.4-.58,1.05-.87,1.72-.87,1.37,0,2.13.86,2.13,2.31v3.9h-1.45v-3.53c0-.92-.39-1.4-1.13-1.4-.8,0-1.26.49-1.26,1.52v3.41h-1.45v-6.09h0Z"/>
  <path class="cls-4" d="m73.22,76.45v-3.5h-.82v-1.15h.82v-1.84h1.45v1.84h1.32v1.15h-1.32v3.15c0,.45.24.58.57.58.3,0,.46-.01.75-.06v1.24c-.32.08-.86.12-1.07.12-.94,0-1.7-.45-1.7-1.53h0Z"/>
  <polygon class="cls-4" points="77.47 77.86 76.96 77.86 76.96 76.13 78.51 76.13 78.51 77.8 77.88 79.54 77.11 79.54 77.47 77.86 77.47 77.86"/>
  <polygon class="cls-4" points="83.1 69.41 85.03 69.41 87.22 74.71 87.24 74.71 89.37 69.41 91.3 69.41 91.3 77.89 89.78 77.89 89.78 72.24 89.75 72.24 87.83 76.91 86.58 76.91 84.65 72.26 84.63 72.26 84.63 77.89 83.1 77.89 83.1 69.41 83.1 69.41"/>
  <path class="cls-4" d="m92.87,75.69v-3.89h1.45v3.53c0,.92.4,1.4,1.14,1.4.8,0,1.25-.5,1.25-1.54v-3.4h1.45v6.09h-1.4v-.75h-.04c-.4.58-1.04.87-1.71.87-1.37,0-2.14-.88-2.14-2.32h0Z"/>
  <path class="cls-4" d="m99.65,71.8h1.4v.74h.02c.42-.56,1.01-.86,1.72-.86.81,0,1.36.32,1.74.9h.01c.43-.55,1.05-.9,1.88-.9,1.13,0,2.13.65,2.13,2.14v4.07h-1.45v-3.54c0-.82-.29-1.39-1.11-1.39s-1.16.63-1.16,1.43v3.51h-1.45v-3.52c0-.77-.23-1.42-1.11-1.42-.51,0-1.18.35-1.18,1.36v3.58h-1.45v-6.09h0Z"/>
  <path class="cls-4" d="m111.55,77.28h-.04v.61h-1.39v-8.48h1.45v3.09h.01c.45-.61,1.13-.82,1.68-.82,1.33,0,2.4.84,2.4,2.4v1.48c0,1.65-1.21,2.47-2.57,2.47-.68,0-1.24-.35-1.55-.75h0Zm2.64-1.68v-1.51c0-.74-.57-1.17-1.32-1.17-.61,0-1.3.42-1.3,1.3v1.4c0,.74.6,1.18,1.34,1.18.61,0,1.27-.32,1.27-1.2h0Z"/>
  <path class="cls-4" d="m116.56,76.16c0-1.18,1.07-1.88,2.25-1.88h1.62v-.56c0-.64-.43-.92-1.16-.92-.63,0-1.09.21-1.09.61v.21h-1.31v-.17c0-1.33,1.27-1.78,2.41-1.78,1.35,0,2.6.45,2.6,1.94v2.96c0,.27.04,1.18.11,1.31h-1.44c-.02-.09-.05-.46-.06-.56h-.02c-.53.56-1,.68-1.78.68-1.26,0-2.12-.69-2.12-1.84h0Zm3.86-.52v-.3h-1.43c-.62,0-1.02.21-1.02.75s.42.77,1.09.77c1.17,0,1.36-.57,1.36-1.23h0Z"/>
  <path class="cls-4" d="m123.38,69.32h1.45v1.55h-1.45v-1.55h0Zm0,2.47h1.45v6.09h-1.45v-6.09h0Z"/>
  <polygon class="cls-2" points="44.19 19.09 55.09 19.09 55.09 30 44.19 30 44.19 19.09 44.19 19.09"/>
  <polygon class="cls-1" points="44.19 12.73 55.09 12.73 55.09 17.27 44.19 17.27 44.19 12.73 44.19 12.73"/>
  <polygon class="cls-1" points="44.19 31.82 55.09 31.82 55.09 36.37 44.19 36.37 44.19 31.82 44.19 31.82"/>
  <polygon class="cls-1" points="69.64 0 80.55 0 80.55 10.91 69.64 10.91 69.64 0 69.64 0"/>
  <polygon class="cls-2" points="69.64 12.73 80.55 12.73 80.55 36.37 69.64 36.37 69.64 12.73 69.64 12.73"/>
  <polygon class="cls-3" points="44.19 0 67.82 0 67.82 36.37 56.91 36.37 56.91 10.91 44.19 10.91 44.19 0 44.19 0"/>
  <polygon class="cls-3" points="14.82 60.14 17.95 60.14 17.95 49.57 22.04 49.57 22.04 47.12 10.74 47.12 10.74 49.57 14.82 49.57 14.82 60.14 14.82 60.14"/>
  <path class="cls-3" d="m31.74,53.45c1.86,0,2.65-.77,2.65-2.01,0-1.31-.53-1.86-2.21-1.86h-1.51v3.87h1.07Zm3.8,6.68c-.8-1.14-3.14-4.52-3.14-4.52-.22.02-.53.02-.77.02h-.96v4.49h-3.15v-13.02h5.06c2.93,0,5.03,1.35,5.03,4.25,0,1.46-.7,2.73-2.1,3.52,0,0,3.73,5.03,3.89,5.25h-3.86Z"/>
  <polygon class="cls-3" points="44.22 60.14 47.35 60.14 47.35 47.12 44.22 47.12 44.22 60.14 44.22 60.14"/>
  <path class="cls-3" d="m57.41,57.69v-8.12h1.49c3.13,0,4.53,1.4,4.53,4.2,0,2.56-1.16,3.92-4.16,3.92h-1.86Zm-3.11,2.45h4.77c4.69,0,7.49-2.04,7.49-6.55s-3.09-6.46-7.6-6.46h-4.66v13.02h0Z"/>
  <polygon class="cls-3" points="71.98 60.14 80.94 60.14 80.94 57.69 75.11 57.69 75.11 54.74 80.12 54.74 80.12 52.46 75.11 52.46 75.11 49.57 80.52 49.57 80.52 47.12 71.98 47.12 71.98 60.14 71.98 60.14"/>
  <polygon class="cls-3" points="86.45 60.14 89.58 60.14 89.58 53.16 89.5 51.43 94.49 60.14 98.23 60.14 98.23 47.12 95.1 47.12 95.1 54.6 95.19 56.05 90.07 47.12 86.45 47.12 86.45 60.14 86.45 60.14"/>
  <polygon class="cls-3" points="106.78 60.14 109.91 60.14 109.91 49.57 114 49.57 114 47.12 102.69 47.12 102.69 49.57 106.78 49.57 106.78 60.14 106.78 60.14"/>
</svg>