<svg xmlns="http://www.w3.org/2000/svg" width="109.051" height="87.907" viewBox="0 0 109.051 87.907">
  <path id="noun-chat-bubbles-4285525" d="M271.284,139.61H224.647a13.629,13.629,0,0,0-13.605,13.605v8.24h-21.6a13.629,13.629,0,0,0-13.605,13.606v23.318a13.618,13.618,0,0,0,13.605,13.605h26.526l18.9,15.113a1.955,1.955,0,0,0,1.209.421,2.028,2.028,0,0,0,1.052-.3,1.988,1.988,0,0,0,.841-2.122l-3.295-13.114h1.4a13.629,13.629,0,0,0,13.605-13.606v-8.24H271.3a13.6,13.6,0,0,0,13.587-13.606V153.214a13.629,13.629,0,0,0-13.605-13.6Zm-25.492,58.768a9.735,9.735,0,0,1-9.712,9.713h-3.893a1.936,1.936,0,0,0-1.525.753,1.855,1.855,0,0,0-.351,1.649l2.49,9.976-14.939-11.957a1.938,1.938,0,0,0-1.209-.438h-27.21a9.723,9.723,0,0,1-9.713-9.713V175.042a9.735,9.735,0,0,1,9.713-9.712h21.6v11.185a13.618,13.618,0,0,0,13.605,13.605h1.4l-3.279,13.149a1.96,1.96,0,0,0,.841,2.1,1.9,1.9,0,0,0,1.052.315,1.876,1.876,0,0,0,1.209-.438l18.9-15.113h1.018Zm35.221-21.846a9.723,9.723,0,0,1-9.713,9.713H244.09a2.026,2.026,0,0,0-1.209.421l-14.956,11.958,2.49-9.959a1.9,1.9,0,0,0-.351-1.666,1.835,1.835,0,0,0-1.525-.755h-3.874a9.711,9.711,0,0,1-9.712-9.713V153.214a9.723,9.723,0,0,1,9.712-9.713H271.3a9.711,9.711,0,0,1,9.712,9.713Z" transform="translate(-175.838 -139.609)" fill="#942132"/>
</svg>
