<?xml version="1.0" encoding="UTF-8"?>
<svg id="Layer_1" data-name="Layer 1" xmlns="http://www.w3.org/2000/svg" viewBox="0 0 102.88 79.88">
  <defs>
    <style>
      .cls-1 {
        fill: #231f20;
      }

      .cls-1, .cls-2, .cls-3 {
        stroke-width: 0px;
      }

      .cls-2 {
        fill: #d3d2c2;
      }

      .cls-3 {
        fill: #be1e2d;
      }
    </style>
  </defs>
  <path class="cls-1" d="m30.81,74.68v-5.53h1.58v5.34c0,1.04.5,1.81,1.73,1.81,1.15,0,1.73-.6,1.73-1.81v-5.34h1.58v5.41c0,2.02-1.34,3.16-3.31,3.16s-3.31-1.02-3.31-3.04h0Z"/>
  <path class="cls-1" d="m38.72,75.34v-1.47c0-1.65,1.15-2.46,2.5-2.46.68,0,1.23.34,1.54.75h.04v-3.01h1.45v8.45h-1.41v-.68h-.01c-.34.47-1.16.82-1.71.82-1.33,0-2.39-.84-2.39-2.39h0Zm4.08-.05v-1.49c0-.73-.59-1.17-1.34-1.17-.6,0-1.27.32-1.27,1.2v1.51c0,.73.57,1.16,1.32,1.16.6,0,1.29-.32,1.29-1.2h0Z"/>
  <path class="cls-1" d="m45.41,75.88c0-1.17,1.07-1.87,2.24-1.87h1.61v-.56c0-.64-.43-.91-1.16-.91-.63,0-1.09.21-1.09.6v.21h-1.3v-.17c0-1.33,1.27-1.78,2.41-1.78,1.35,0,2.6.45,2.6,1.93v2.95c0,.27.04,1.17.11,1.3h-1.43c-.02-.09-.05-.46-.06-.56h-.02c-.53.56-1,.68-1.78.68-1.26,0-2.11-.69-2.11-1.84h0Zm3.85-.52v-.3h-1.42c-.62,0-1.02.21-1.02.75s.41.77,1.09.77c1.16,0,1.35-.57,1.35-1.22h0Z"/>
  <path class="cls-1" d="m52.22,69.07h1.45v1.54h-1.45v-1.54h0Zm0,2.46h1.45v6.07h-1.45v-6.07h0Z"/>
  <path class="cls-1" d="m55.23,71.53h1.41v.7h.01c.47-.57,1.16-.82,1.71-.82,1.33,0,2.39.84,2.39,2.39v1.47c0,1.65-1.15,2.46-2.5,2.46-.68,0-1.23-.34-1.54-.75h-.04v2.89h-1.45v-8.35h0Zm4.05,3.79v-1.51c0-.74-.57-1.16-1.32-1.16-.6,0-1.29.4-1.29,1.28v1.41c0,.73.59,1.17,1.34,1.17.6,0,1.27-.32,1.27-1.2h0Z"/>
  <path class="cls-1" d="m61.96,75.4v-3.87h1.45v3.52c0,.91.4,1.4,1.14,1.4.79,0,1.24-.5,1.24-1.53v-3.39h1.45v6.07h-1.4v-.75h-.04c-.4.58-1.03.86-1.71.86-1.36,0-2.13-.88-2.13-2.31h0Z"/>
  <path class="cls-1" d="m68.65,71.53h1.41v1.01h.02c.36-.64,1.26-1.12,1.98-1.12.15,0,.33,0,.49.04v1.33c-.19-.04-.34-.04-.54-.04-1.09,0-1.91.63-1.91,1.75v3.1h-1.45v-6.07h0Z"/>
  <polygon class="cls-2" points="33.32 19.02 44.19 19.02 44.19 29.89 33.32 29.89 33.32 19.02 33.32 19.02"/>
  <polygon class="cls-1" points="33.32 12.68 44.19 12.68 44.19 17.21 33.32 17.21 33.32 12.68 33.32 12.68"/>
  <polygon class="cls-1" points="33.32 31.7 44.19 31.7 44.19 36.23 33.32 36.23 33.32 31.7 33.32 31.7"/>
  <polygon class="cls-1" points="58.69 0 69.55 0 69.55 10.87 58.69 10.87 58.69 0 58.69 0"/>
  <polygon class="cls-2" points="58.69 12.68 69.55 12.68 69.55 36.23 58.69 36.23 58.69 12.68 58.69 12.68"/>
  <polygon class="cls-3" points="33.33 0 56.87 0 56.87 36.23 46 36.23 46 10.87 33.33 10.87 33.33 0 33.33 0"/>
  <polygon class="cls-3" points="4.07 59.91 7.19 59.91 7.19 49.39 11.26 49.39 11.26 46.95 0 46.95 0 49.39 4.07 49.39 4.07 59.91 4.07 59.91"/>
  <path class="cls-3" d="m20.93,53.26c1.85,0,2.64-.77,2.64-2,0-1.3-.53-1.85-2.2-1.85h-1.5v3.85h1.06Zm3.79,6.66c-.79-1.14-3.13-4.5-3.13-4.5-.22.02-.53.02-.77.02h-.95v4.47h-3.14v-12.97h5.04c2.92,0,5.01,1.34,5.01,4.24,0,1.45-.7,2.72-2.09,3.51,0,0,3.72,5.02,3.87,5.23h-3.84Z"/>
  <polygon class="cls-3" points="33.36 59.91 36.48 59.91 36.48 46.95 33.36 46.95 33.36 59.91 33.36 59.91"/>
  <path class="cls-3" d="m46.5,57.48v-8.09h1.49c3.12,0,4.51,1.39,4.51,4.18,0,2.55-1.15,3.91-4.14,3.91h-1.85Zm-3.1,2.44h4.75c4.68,0,7.47-2.04,7.47-6.53s-3.08-6.44-7.58-6.44h-4.64v12.97h0Z"/>
  <polygon class="cls-3" points="61.01 59.91 69.95 59.91 69.95 57.48 64.13 57.48 64.13 54.54 69.12 54.54 69.12 52.26 64.13 52.26 64.13 49.39 69.52 49.39 69.52 46.95 61.01 46.95 61.01 59.91 61.01 59.91"/>
  <polygon class="cls-3" points="75.43 59.91 78.55 59.91 78.55 52.96 78.47 51.24 83.44 59.91 87.17 59.91 87.17 46.95 84.05 46.95 84.05 54.39 84.14 55.84 79.04 46.95 75.43 46.95 75.43 59.91 75.43 59.91"/>
  <polygon class="cls-3" points="95.69 59.91 98.81 59.91 98.81 49.39 102.88 49.39 102.88 46.95 91.62 46.95 91.62 49.39 95.69 49.39 95.69 59.91 95.69 59.91"/>
</svg>