<svg xmlns="http://www.w3.org/2000/svg" width="50.603" height="50.813" viewBox="0 0 50.603 50.813">
  <g id="Group_135" data-name="Group 135" transform="translate(-1367.714 -12286.956)">
    <path id="Path_234" data-name="Path 234" d="M1393.1,12287.456a24.412,24.412,0,0,1,10.23,2.255,25.282,25.282,0,0,1,6.46,4.286,24.265,24.265,0,0,1,5.448,7.263,23.387,23.387,0,0,1,2.366,8.083,24.313,24.313,0,0,1,.212,3.114,26.842,26.842,0,0,1-1.134,7.245,25.446,25.446,0,0,1-3.262,6.771,23.632,23.632,0,0,1-3.991,4.552,24.111,24.111,0,0,1-4.875,3.383,36.145,36.145,0,0,1-3.949,1.672,19.782,19.782,0,0,1-4.175.975,26.816,26.816,0,0,1-5.81.113,23.56,23.56,0,0,1-4.572-.864,24.763,24.763,0,0,1-11.671-7.476,24.011,24.011,0,0,1-4.54-7.521,24.616,24.616,0,0,1-1.257-4.609,24.16,24.16,0,0,1-.264-6.351,25.366,25.366,0,0,1,1.8-7.482,24.1,24.1,0,0,1,3.607-6.036,29.329,29.329,0,0,1,2.129-2.368,24.839,24.839,0,0,1,12.253-6.475,18.3,18.3,0,0,1,1.874-.317C1391.018,12287.567,1392.059,12287.523,1393.1,12287.456Zm.078,13.337,0-.057c-1.9.055-3.8.1-5.7.169-2.061.073-4.123.149-6.183.258a4.138,4.138,0,0,0-2.893,1.3,5.011,5.011,0,0,0-1.1,2.232,24.49,24.49,0,0,0-.574,5.6,62.218,62.218,0,0,0,.207,7.9,10.512,10.512,0,0,0,.71,2.969,4.091,4.091,0,0,0,.645,1.029,3.783,3.783,0,0,0,2.7,1.288c1.768.161,3.541.292,5.314.364,2.083.085,4.168.117,6.252.128,1.348.007,2.7-.1,4.044-.092,2.618.024,5.229-.1,7.839-.27a4.405,4.405,0,0,0,3.224-1.415,5.5,5.5,0,0,0,1.188-2.783,27.312,27.312,0,0,0,.386-4.515c0-1.677.018-3.354,0-5.031-.013-1-.069-2-.141-3a12.8,12.8,0,0,0-.239-1.759,5.522,5.522,0,0,0-1.038-2.468,4.181,4.181,0,0,0-3.06-1.481c-.9-.059-1.794-.1-2.692-.142-1.55-.075-3.1-.175-4.65-.216C1396,12300.764,1394.587,12300.793,1393.176,12300.793Z" fill="none" stroke="#fff" stroke-width="1"/>
    <path id="Path_235" data-name="Path 235" d="M1393.176,12300.793c1.411,0,2.823-.029,4.233.007,1.551.041,3.1.141,4.65.216.9.044,1.8.083,2.692.142a4.181,4.181,0,0,1,3.06,1.481,5.522,5.522,0,0,1,1.038,2.468,12.8,12.8,0,0,1,.239,1.759c.072,1,.128,2,.141,3,.022,1.677.005,3.354,0,5.031a27.312,27.312,0,0,1-.386,4.515,5.5,5.5,0,0,1-1.188,2.783,4.405,4.405,0,0,1-3.224,1.415c-2.61.171-5.221.294-7.839.27-1.348-.012-2.7.1-4.044.092-2.084-.011-4.169-.043-6.252-.128-1.773-.072-3.546-.2-5.314-.364a3.783,3.783,0,0,1-2.7-1.288,4.091,4.091,0,0,1-.645-1.029,10.512,10.512,0,0,1-.71-2.969,62.218,62.218,0,0,1-.207-7.9,24.49,24.49,0,0,1,.574-5.6,5.011,5.011,0,0,1,1.1-2.232,4.138,4.138,0,0,1,2.893-1.3c2.06-.108,4.122-.185,6.183-.258,1.9-.067,3.8-.114,5.7-.169Zm-3.542,16.21c1.51-.72,2.919-1.535,4.335-2.33s2.91-1.513,4.4-2.469c-.31-.2-.5-.337-.706-.446-1.082-.575-2.168-1.142-3.254-1.711-1.464-.768-2.928-1.538-4.4-2.3a2.156,2.156,0,0,0-.439-.125A74.032,74.032,0,0,0,1389.634,12317Z" fill="none" stroke="#fff" stroke-width="1"/>
    <path id="Path_236" data-name="Path 236" d="M1389.634,12317a74.032,74.032,0,0,1-.058-9.381,2.156,2.156,0,0,1,.439.125c1.468.762,2.932,1.532,4.4,2.3,1.086.569,2.172,1.136,3.254,1.711.206.109.4.248.706.446-1.492.956-2.973,1.668-4.4,2.469S1391.144,12316.283,1389.634,12317Z" fill="none" stroke="#fff" stroke-width="1"/>
  </g>
</svg>
