<?xml version="1.0" encoding="UTF-8"?>
<svg id="Layer_1" data-name="Layer 1" xmlns="http://www.w3.org/2000/svg" viewBox="0 0 119.4 79.3">
  <defs>
    <style>
      .cls-1 {
        fill: #231f20;
      }

      .cls-1, .cls-2, .cls-3 {
        stroke-width: 0px;
      }

      .cls-2 {
        fill: #d3d2c2;
      }

      .cls-3 {
        fill: #be1e2d;
      }
    </style>
  </defs>
  <path class="cls-1" d="m0,69.2h3.63c1.64,0,2.61.72,2.61,2.18,0,.76-.33,1.39-1.2,1.79h0c.97.27,1.46,1.1,1.46,2.05,0,1.59-1.27,2.43-2.67,2.43H0v-8.45h0Zm3.44,3.47c.79,0,1.26-.4,1.26-1.09,0-.73-.53-1.04-1.33-1.04h-1.79v2.13h1.86Zm.12,3.64c.84,0,1.38-.41,1.38-1.19s-.49-1.13-1.36-1.13h-1.99v2.31h1.98Z"/>
  <path class="cls-1" d="m7.39,75.93c0-1.17,1.07-1.87,2.24-1.87h1.61v-.56c0-.64-.43-.91-1.16-.91-.63,0-1.09.21-1.09.6v.21h-1.3v-.17c0-1.33,1.27-1.78,2.41-1.78,1.35,0,2.6.45,2.6,1.93v2.95c0,.27.04,1.17.11,1.3h-1.43c-.02-.1-.05-.46-.06-.56h-.02c-.53.56-1,.68-1.78.68-1.26,0-2.11-.69-2.11-1.84h0Zm3.85-.52v-.3h-1.42c-.62,0-1.02.21-1.02.75s.42.77,1.09.77c1.16,0,1.35-.57,1.35-1.22h0Z"/>
  <path class="cls-1" d="m14.2,71.58h1.41v.75h.02c.4-.58,1.04-.87,1.72-.87,1.36,0,2.12.85,2.12,2.3v3.89h-1.45v-3.52c0-.91-.39-1.4-1.13-1.4-.79,0-1.26.49-1.26,1.52v3.4h-1.45v-6.07h0Z"/>
  <path class="cls-1" d="m20.68,75.4v-1.47c0-1.65,1.15-2.47,2.5-2.47.68,0,1.23.34,1.54.75h.04v-3.01h1.45v8.45h-1.41v-.68h-.01c-.34.48-1.16.82-1.71.82-1.33,0-2.39-.84-2.39-2.4h0Zm4.08-.05v-1.49c0-.74-.59-1.17-1.34-1.17-.6,0-1.27.32-1.27,1.2v1.51c0,.73.57,1.16,1.32,1.16.6,0,1.29-.32,1.29-1.2h0Z"/>
  <path class="cls-1" d="m27.7,71.58h1.41v1.01h.02c.36-.64,1.26-1.13,1.98-1.13.15,0,.33,0,.49.04v1.33c-.19-.04-.34-.04-.55-.04-1.09,0-1.91.63-1.91,1.76v3.11h-1.45v-6.07h0Z"/>
  <path class="cls-1" d="m32.18,75.93c0-1.17,1.07-1.87,2.24-1.87h1.61v-.56c0-.64-.43-.91-1.16-.91-.63,0-1.09.21-1.09.6v.21h-1.3v-.17c0-1.33,1.27-1.78,2.41-1.78,1.35,0,2.6.45,2.6,1.93v2.95c0,.27.04,1.17.11,1.3h-1.43c-.02-.1-.05-.46-.06-.56h-.02c-.53.56-1,.68-1.78.68-1.26,0-2.11-.69-2.11-1.84h0Zm3.85-.52v-.3h-1.42c-.62,0-1.02.21-1.02.75s.41.77,1.09.77c1.16,0,1.35-.57,1.35-1.22h0Z"/>
  <polygon class="cls-1" points="42.02 69.2 43.6 69.2 43.6 73.12 47 69.2 48.92 69.2 45.91 72.53 49.22 77.65 47.38 77.65 44.86 73.68 43.6 74.99 43.6 77.65 42.02 77.65 42.02 69.2 42.02 69.2"/>
  <path class="cls-1" d="m50.01,75.46v-3.88h1.45v3.52c0,.91.4,1.4,1.14,1.4.79,0,1.25-.5,1.25-1.53v-3.39h1.45v6.07h-1.4v-.75h-.04c-.4.58-1.03.86-1.71.86-1.36,0-2.13-.88-2.13-2.31h0Z"/>
  <path class="cls-1" d="m56.71,71.58h1.41v1.01h.02c.36-.64,1.26-1.13,1.98-1.13.15,0,.33,0,.49.04v1.33c-.19-.04-.34-.04-.55-.04-1.09,0-1.91.63-1.91,1.76v3.11h-1.45v-6.07h0Z"/>
  <path class="cls-1" d="m61.61,76.02v-6.83h1.45v6.82c0,.27.13.5.52.5.26,0,.4-.02.66-.05v1.1c-.31.08-.78.16-1.16.16-1.43,0-1.47-1.16-1.47-1.71h0Z"/>
  <path class="cls-1" d="m64.87,75.93c0-1.17,1.07-1.87,2.24-1.87h1.61v-.56c0-.64-.43-.91-1.16-.91-.63,0-1.09.21-1.09.6v.21h-1.3v-.17c0-1.33,1.27-1.78,2.41-1.78,1.35,0,2.6.45,2.6,1.93v2.95c0,.27.04,1.17.11,1.3h-1.43c-.02-.1-.05-.46-.06-.56h-.02c-.53.56-1,.68-1.78.68-1.26,0-2.11-.69-2.11-1.84h0Zm3.85-.52v-.3h-1.42c-.62,0-1.02.21-1.02.75s.42.77,1.09.77c1.16,0,1.35-.57,1.35-1.22h0Z"/>
  <polygon class="cls-1" points="72.18 77.63 71.67 77.63 71.67 75.89 73.22 75.89 73.22 77.57 72.59 79.3 71.82 79.3 72.18 77.63 72.18 77.63"/>
  <polygon class="cls-1" points="77.8 69.2 79.72 69.2 81.9 74.48 81.93 74.48 84.05 69.2 85.97 69.2 85.97 77.65 84.45 77.65 84.45 72.02 84.43 72.02 82.51 76.68 81.26 76.68 79.34 72.04 79.32 72.04 79.32 77.65 77.8 77.65 77.8 69.2 77.8 69.2"/>
  <path class="cls-1" d="m87.54,75.46v-3.88h1.45v3.52c0,.91.4,1.4,1.14,1.4.79,0,1.24-.5,1.24-1.53v-3.39h1.45v6.07h-1.4v-.75h-.04c-.4.58-1.03.86-1.71.86-1.36,0-2.13-.88-2.13-2.31h0Z"/>
  <path class="cls-1" d="m94.3,71.58h1.4v.74h.02c.42-.56,1.01-.85,1.72-.85.81,0,1.35.32,1.73.9h.01c.43-.55,1.04-.9,1.87-.9,1.13,0,2.12.65,2.12,2.14v4.05h-1.45v-3.53c0-.82-.28-1.39-1.1-1.39s-1.16.63-1.16,1.42v3.5h-1.45v-3.51c0-.77-.23-1.41-1.1-1.41-.51,0-1.17.34-1.17,1.35v3.57h-1.45v-6.07h0Z"/>
  <path class="cls-1" d="m106.16,77.04h-.04v.61h-1.39v-8.45h1.45v3.08h.01c.45-.6,1.13-.82,1.67-.82,1.33,0,2.4.84,2.4,2.4v1.47c0,1.65-1.21,2.47-2.56,2.47-.68,0-1.23-.34-1.54-.75h0Zm2.63-1.67v-1.51c0-.74-.57-1.16-1.32-1.16-.6,0-1.29.42-1.29,1.29v1.4c0,.73.59,1.17,1.34,1.17.6,0,1.27-.32,1.27-1.2h0Z"/>
  <path class="cls-1" d="m111.15,75.93c0-1.17,1.07-1.87,2.24-1.87h1.61v-.56c0-.64-.43-.91-1.16-.91-.63,0-1.09.21-1.09.6v.21h-1.3v-.17c0-1.33,1.27-1.78,2.41-1.78,1.35,0,2.6.45,2.6,1.93v2.95c0,.27.04,1.17.11,1.3h-1.43c-.02-.1-.05-.46-.06-.56h-.02c-.53.56-1,.68-1.78.68-1.26,0-2.11-.69-2.11-1.84h0Zm3.85-.52v-.3h-1.42c-.62,0-1.02.21-1.02.75s.42.77,1.09.77c1.16,0,1.35-.57,1.35-1.22h0Z"/>
  <path class="cls-1" d="m117.96,69.11h1.45v1.54h-1.45v-1.54h0Zm0,2.47h1.45v6.07h-1.45v-6.07h0Z"/>
  <polygon class="cls-2" points="41.53 19.04 52.4 19.04 52.4 29.91 41.53 29.91 41.53 19.04 41.53 19.04"/>
  <polygon class="cls-1" points="41.53 12.69 52.4 12.69 52.4 17.22 41.53 17.22 41.53 12.69 41.53 12.69"/>
  <polygon class="cls-1" points="41.53 31.72 52.4 31.72 52.4 36.25 41.53 36.25 41.53 31.72 41.53 31.72"/>
  <polygon class="cls-1" points="66.9 0 77.78 0 77.78 10.88 66.9 10.88 66.9 0 66.9 0"/>
  <polygon class="cls-2" points="66.9 12.69 77.78 12.69 77.78 36.25 66.9 36.25 66.9 12.69 66.9 12.69"/>
  <polygon class="cls-3" points="41.53 0 65.09 0 65.09 36.26 54.21 36.26 54.21 10.88 41.53 10.88 41.53 0 41.53 0"/>
  <polygon class="cls-3" points="12.25 59.95 15.37 59.95 15.37 49.42 19.45 49.42 19.45 46.98 8.18 46.98 8.18 49.42 12.25 49.42 12.25 59.95 12.25 59.95"/>
  <path class="cls-3" d="m29.12,53.29c1.85,0,2.64-.77,2.64-2,0-1.3-.53-1.85-2.2-1.85h-1.5v3.85h1.06Zm3.79,6.66c-.79-1.14-3.13-4.5-3.13-4.5-.22.02-.53.02-.77.02h-.95v4.48h-3.14v-12.98h5.05c2.92,0,5.01,1.34,5.01,4.24,0,1.45-.7,2.72-2.09,3.51,0,0,3.72,5.02,3.87,5.23h-3.84Z"/>
  <polygon class="cls-3" points="41.56 59.96 44.68 59.96 44.68 46.98 41.56 46.98 41.56 59.96 41.56 59.96"/>
  <path class="cls-3" d="m54.71,57.51v-8.1h1.49c3.12,0,4.52,1.39,4.52,4.18,0,2.55-1.16,3.91-4.15,3.91h-1.85Zm-3.1,2.44h4.75c4.68,0,7.47-2.04,7.47-6.53s-3.08-6.44-7.58-6.44h-4.64v12.98h0Z"/>
  <polygon class="cls-3" points="69.23 59.95 78.17 59.95 78.17 57.51 72.35 57.51 72.35 54.58 77.35 54.58 77.35 52.3 72.35 52.3 72.35 49.42 77.75 49.42 77.75 46.98 69.23 46.98 69.23 59.95 69.23 59.95"/>
  <polygon class="cls-3" points="83.66 59.95 86.78 59.95 86.78 53 86.71 51.27 91.68 59.95 95.4 59.95 95.4 46.98 92.29 46.98 92.29 54.43 92.38 55.88 87.27 46.98 83.66 46.98 83.66 59.95 83.66 59.95"/>
  <polygon class="cls-3" points="103.93 59.95 107.05 59.95 107.05 49.42 111.13 49.42 111.13 46.98 99.86 46.98 99.86 49.42 103.93 49.42 103.93 59.95 103.93 59.95"/>
</svg>