<svg xmlns="http://www.w3.org/2000/svg" width="34.557" height="32.13" viewBox="0 0 34.557 32.13">
  <g id="Group_241" data-name="Group 241" transform="translate(-2863.83 -4479.274)">
    <path id="Path_45" data-name="Path 45" d="M2898.035,4482.18h-3.389v-1.569a1.34,1.34,0,0,0-1.337-1.337h-1.7a1.34,1.34,0,0,0-1.337,1.337v1.569H2883.3v-1.569a1.34,1.34,0,0,0-1.337-1.337h-1.7a1.34,1.34,0,0,0-1.337,1.337v1.569h-6.973v-1.569a1.34,1.34,0,0,0-1.337-1.337h-1.7a1.34,1.34,0,0,0-1.337,1.337v1.569h-3.389a.352.352,0,0,0-.353.35v28.524a.351.351,0,0,0,.353.35h33.852a.351.351,0,0,0,.352-.35V4482.53a.351.351,0,0,0-.352-.35m-7.062-1.569a.636.636,0,0,1,.634-.634h1.7a.636.636,0,0,1,.634.634v3.6a.636.636,0,0,1-.634.635h-1.7a.636.636,0,0,1-.634-.635Zm-11.35,0a.636.636,0,0,1,.635-.634h1.7a.635.635,0,0,1,.634.634v3.6a.636.636,0,0,1-.634.635h-1.7a.637.637,0,0,1-.635-.635Zm-11.348,0a.636.636,0,0,1,.634-.634h1.7a.636.636,0,0,1,.634.634v3.6a.636.636,0,0,1-.634.635h-1.7a.636.636,0,0,1-.634-.635Zm29.409,30.09h-33.15v-27.819h3.038v1.328a1.34,1.34,0,0,0,1.337,1.337h1.7a1.34,1.34,0,0,0,1.337-1.337v-1.328h6.973v1.328a1.34,1.34,0,0,0,1.337,1.337h1.7a1.34,1.34,0,0,0,1.337-1.337v-1.328h6.973v1.328a1.34,1.34,0,0,0,1.337,1.337h1.7a1.34,1.34,0,0,0,1.337-1.337v-1.328h3.038Z" fill="#606161"/>
    <path id="Path_46" data-name="Path 46" d="M2870.7,4488.851h-4.057a.352.352,0,0,0-.352.352v4.057a.351.351,0,0,0,.352.351h4.057a.351.351,0,0,0,.351-.351V4489.2a.351.351,0,0,0-.351-.352m-.351,4.058h-3.354v-3.354h3.354Z" fill="#606161"/>
    <path id="Path_47" data-name="Path 47" d="M2876.917,4488.851h-4.057a.351.351,0,0,0-.351.352v4.057a.351.351,0,0,0,.351.351h4.057a.351.351,0,0,0,.351-.351V4489.2a.351.351,0,0,0-.351-.352m-.351,4.058h-3.354v-3.354h3.354Z" fill="#606161"/>
    <path id="Path_48" data-name="Path 48" d="M2883.137,4488.851h-4.057a.351.351,0,0,0-.351.352v4.057a.351.351,0,0,0,.351.351h4.057a.351.351,0,0,0,.352-.351V4489.2a.352.352,0,0,0-.352-.352m-.351,4.058h-3.354v-3.354h3.354Z" fill="#606161"/>
    <path id="Path_49" data-name="Path 49" d="M2889.358,4488.851H2885.3a.352.352,0,0,0-.352.352v4.057a.351.351,0,0,0,.352.351h4.057a.351.351,0,0,0,.351-.351V4489.2a.351.351,0,0,0-.351-.352m-.352,4.058h-3.354v-3.354h3.354Z" fill="#606161"/>
    <path id="Path_50" data-name="Path 50" d="M2891.169,4489.2v4.057a.351.351,0,0,0,.352.351h4.057a.351.351,0,0,0,.351-.351V4489.2a.351.351,0,0,0-.351-.352h-4.057a.352.352,0,0,0-.352.352m.7.351h3.354v3.354h-3.354Z" fill="#606161"/>
    <path id="Path_51" data-name="Path 51" d="M2870.7,4495.538h-4.057a.351.351,0,0,0-.352.351v4.058a.352.352,0,0,0,.352.351h4.057a.351.351,0,0,0,.351-.351v-4.058a.351.351,0,0,0-.351-.351m-.351,4.057h-3.354v-3.354h3.354Z" fill="#606161"/>
    <path id="Path_52" data-name="Path 52" d="M2876.917,4495.538h-4.057a.351.351,0,0,0-.351.351v4.058a.351.351,0,0,0,.351.351h4.057a.351.351,0,0,0,.351-.351v-4.058a.351.351,0,0,0-.351-.351m-.351,4.057h-3.354v-3.354h3.354Z" fill="#606161"/>
    <path id="Path_53" data-name="Path 53" d="M2883.137,4495.538h-4.057a.351.351,0,0,0-.351.351v4.058a.351.351,0,0,0,.351.351h4.057a.351.351,0,0,0,.352-.351v-4.058a.351.351,0,0,0-.352-.351m-.351,4.057h-3.354v-3.354h3.354Z" fill="#606161"/>
    <path id="Path_54" data-name="Path 54" d="M2889.358,4495.538H2885.3a.351.351,0,0,0-.352.351v4.058a.351.351,0,0,0,.352.351h4.057a.351.351,0,0,0,.351-.351v-4.058a.351.351,0,0,0-.351-.351m-.352,4.057h-3.354v-3.354h3.354Z" fill="#606161"/>
    <path id="Path_55" data-name="Path 55" d="M2895.578,4495.538h-4.057a.351.351,0,0,0-.352.351v4.058a.352.352,0,0,0,.352.351h4.057a.351.351,0,0,0,.351-.351v-4.058a.351.351,0,0,0-.351-.351m-.352,4.057h-3.354v-3.354h3.354Z" fill="#606161"/>
    <path id="Path_56" data-name="Path 56" d="M2870.7,4502.224h-4.057a.352.352,0,0,0-.352.352v4.058a.351.351,0,0,0,.352.35h4.057a.35.35,0,0,0,.351-.35v-4.058a.351.351,0,0,0-.351-.352m-.351,4.058h-3.354v-3.354h3.354Z" fill="#606161"/>
    <path id="Path_57" data-name="Path 57" d="M2876.917,4502.224h-4.057a.351.351,0,0,0-.351.352v4.058a.35.35,0,0,0,.351.35h4.057a.35.35,0,0,0,.351-.35v-4.058a.351.351,0,0,0-.351-.352m-.351,4.058h-3.354v-3.354h3.354Z" fill="#606161"/>
    <path id="Path_58" data-name="Path 58" d="M2883.137,4502.224h-4.057a.351.351,0,0,0-.351.352v4.058a.35.35,0,0,0,.351.35h4.057a.351.351,0,0,0,.352-.35v-4.058a.352.352,0,0,0-.352-.352m-.351,4.058h-3.354v-3.354h3.354Z" fill="#606161"/>
    <path id="Path_59" data-name="Path 59" d="M2889.358,4502.224H2885.3a.352.352,0,0,0-.352.352v4.058a.351.351,0,0,0,.352.35h4.057a.35.35,0,0,0,.351-.35v-4.058a.351.351,0,0,0-.351-.352m-.352,4.058h-3.354v-3.354h3.354Z" fill="#606161"/>
  </g>
</svg>
