<?xml version="1.0" encoding="UTF-8"?>
<svg id="Layer_1" data-name="Layer 1" xmlns="http://www.w3.org/2000/svg" viewBox="0 0 102.99 77.8">
  <defs>
    <style>
      .cls-1 {
        fill: #231f20;
      }

      .cls-1, .cls-2, .cls-3, .cls-4 {
        stroke-width: 0px;
      }

      .cls-2 {
        fill: #d3d2c4;
      }

      .cls-3 {
        fill: #be1e2d;
      }

      .cls-4 {
        fill: #fff;
      }
    </style>
  </defs>
  <path class="cls-4" d="m15.12,69.2h3.63c1.64,0,2.61.72,2.61,2.18,0,.76-.33,1.39-1.2,1.79h0c.97.27,1.46,1.1,1.46,2.05,0,1.59-1.27,2.43-2.67,2.43h-3.83v-8.46h0Zm3.44,3.48c.79,0,1.26-.4,1.26-1.09,0-.74-.53-1.04-1.33-1.04h-1.79v2.13h1.86Zm.12,3.64c.84,0,1.38-.42,1.38-1.19s-.49-1.13-1.36-1.13h-1.99v2.31h1.98Z"/>
  <path class="cls-4" d="m22.91,69.2h1.45v3.13h.04c.4-.58,1.04-.86,1.67-.86,1.36,0,2.12.85,2.12,2.3v3.89h-1.45v-3.52c0-.91-.39-1.4-1.13-1.4-.79,0-1.26.49-1.26,1.52v3.4h-1.45v-8.46h0Z"/>
  <path class="cls-4" d="m29.61,75.46v-3.88h1.45v3.52c0,.91.4,1.4,1.14,1.4.79,0,1.25-.5,1.25-1.53v-3.39h1.45v6.07h-1.4v-.75h-.04c-.4.58-1.03.87-1.71.87-1.36,0-2.14-.88-2.14-2.31h0Z"/>
  <path class="cls-4" d="m37.81,77.05h-.04v.61h-1.39v-8.46h1.45v3.08h.01c.45-.61,1.13-.82,1.67-.82,1.33,0,2.4.84,2.4,2.4v1.47c0,1.65-1.21,2.47-2.56,2.47-.68,0-1.23-.35-1.54-.75h0Zm2.63-1.67v-1.51c0-.74-.57-1.16-1.32-1.16-.61,0-1.29.42-1.29,1.29v1.4c0,.74.59,1.17,1.34,1.17.6,0,1.27-.32,1.27-1.2h0Z"/>
  <path class="cls-4" d="m42.8,75.94c0-1.17,1.07-1.87,2.24-1.87h1.61v-.56c0-.64-.43-.91-1.16-.91-.63,0-1.09.21-1.09.61v.21h-1.3v-.17c0-1.33,1.27-1.78,2.41-1.78,1.35,0,2.6.45,2.6,1.93v2.95c0,.27.04,1.17.11,1.3h-1.44c-.02-.1-.05-.46-.06-.56h-.02c-.53.56-1,.68-1.78.68-1.26,0-2.11-.69-2.11-1.84h0Zm3.85-.52v-.3h-1.42c-.62,0-1.02.21-1.02.75s.42.77,1.09.77c1.16,0,1.35-.57,1.35-1.22h0Z"/>
  <path class="cls-4" d="m49.61,71.58h1.41v.75h.02c.4-.58,1.04-.86,1.72-.86,1.36,0,2.12.85,2.12,2.3v3.89h-1.45v-3.52c0-.91-.39-1.4-1.13-1.4-.79,0-1.26.49-1.26,1.52v3.4h-1.45v-6.07h0Z"/>
  <path class="cls-4" d="m56.08,75.32v-1.19c0-1.71,1.28-2.66,2.79-2.66,1.32,0,2.62.77,2.62,2.39v1.17h-3.9v.33c0,.77.63,1.22,1.4,1.22.49,0,1-.32,1.32-.78l1.11.64c-.47.95-1.44,1.35-2.5,1.35-1.49,0-2.83-.82-2.83-2.48h0Zm3.96-1.29v-.17c0-.83-.58-1.16-1.17-1.16s-1.28.33-1.28,1.24v.08h2.46Z"/>
  <path class="cls-4" d="m62.39,76.61l1.02-.77c.38.5.98.8,1.67.8.59,0,1.2-.2,1.2-.75,0-.48-.32-.58-1.14-.72l-.79-.14c-1-.18-1.66-.66-1.66-1.58,0-1.27,1.11-1.99,2.41-1.99,1.09,0,1.87.27,2.38,1l-1.04.71c-.36-.41-.76-.59-1.35-.59s-.98.21-.98.68c0,.43.52.49,1.15.61l.91.18c1.03.2,1.63.78,1.63,1.7,0,1.4-1.44,2.06-2.68,2.06-1.09,0-2.11-.28-2.72-1.17h0Z"/>
  <polygon class="cls-4" points="68.27 71.58 69.8 71.58 70.94 75.79 70.97 75.79 72.16 71.58 73.42 71.58 74.62 75.78 74.64 75.78 75.78 71.58 77.29 71.58 75.37 77.68 73.97 77.68 72.79 73.49 72.77 73.49 71.62 77.68 70.21 77.68 68.27 71.58 68.27 71.58"/>
  <path class="cls-4" d="m77.75,75.94c0-1.17,1.07-1.87,2.24-1.87h1.61v-.56c0-.64-.43-.91-1.16-.91-.63,0-1.09.21-1.09.61v.21h-1.3v-.17c0-1.33,1.27-1.78,2.41-1.78,1.35,0,2.6.45,2.6,1.93v2.95c0,.27.04,1.17.11,1.3h-1.43c-.02-.1-.05-.46-.06-.56h-.02c-.53.56-1,.68-1.78.68-1.26,0-2.11-.69-2.11-1.84h0Zm3.85-.52v-.3h-1.42c-.62,0-1.02.21-1.02.75s.42.77,1.09.77c1.16,0,1.35-.57,1.35-1.22h0Z"/>
  <path class="cls-4" d="m84.49,71.58h1.41v1.01h.02c.35-.64,1.26-1.13,1.98-1.13.15,0,.33,0,.49.04v1.33c-.19-.04-.34-.04-.55-.04-1.09,0-1.91.63-1.91,1.76v3.11h-1.45v-6.07h0Z"/>
  <polygon class="cls-2" points="33.36 19.04 44.24 19.04 44.24 29.92 33.36 29.92 33.36 19.04 33.36 19.04"/>
  <polygon class="cls-1" points="33.36 12.69 44.24 12.69 44.24 17.23 33.36 17.23 33.36 12.69 33.36 12.69"/>
  <polygon class="cls-1" points="33.36 31.74 44.24 31.74 44.24 36.27 33.36 36.27 33.36 31.74 33.36 31.74"/>
  <polygon class="cls-1" points="58.75 0 69.63 0 69.63 10.88 58.75 10.88 58.75 0 58.75 0"/>
  <polygon class="cls-2" points="58.75 12.69 69.63 12.69 69.63 36.27 58.75 36.27 58.75 12.69 58.75 12.69"/>
  <polygon class="cls-3" points="33.36 0 56.93 0 56.93 36.27 46.05 36.27 46.05 10.88 33.36 10.88 33.36 0 33.36 0"/>
  <polygon class="cls-3" points="4.08 59.98 7.2 59.98 7.2 49.44 11.27 49.44 11.27 46.99 0 46.99 0 49.44 4.08 49.44 4.08 59.98 4.08 59.98"/>
  <path class="cls-3" d="m20.95,53.31c1.86,0,2.65-.77,2.65-2,0-1.3-.53-1.85-2.2-1.85h-1.51v3.86h1.06Zm3.79,6.66c-.79-1.14-3.13-4.5-3.13-4.5-.22.02-.53.02-.77.02h-.95v4.48h-3.14v-12.98h5.05c2.92,0,5.01,1.34,5.01,4.24,0,1.45-.7,2.72-2.09,3.51,0,0,3.72,5.02,3.88,5.23h-3.85Z"/>
  <polygon class="cls-3" points="33.4 59.98 36.52 59.98 36.52 47 33.4 47 33.4 59.98 33.4 59.98"/>
  <path class="cls-3" d="m46.55,57.54v-8.1h1.49c3.12,0,4.52,1.39,4.52,4.19,0,2.55-1.16,3.91-4.15,3.91h-1.85Zm-3.1,2.44h4.76c4.68,0,7.47-2.04,7.47-6.53s-3.08-6.45-7.58-6.45h-4.64v12.98h0Z"/>
  <polygon class="cls-3" points="61.08 59.98 70.02 59.98 70.02 57.54 64.2 57.54 64.2 54.6 69.19 54.6 69.19 52.32 64.2 52.32 64.2 49.44 69.6 49.44 69.6 46.99 61.08 46.99 61.08 59.98 61.08 59.98"/>
  <polygon class="cls-3" points="75.51 59.98 78.63 59.98 78.63 53.02 78.56 51.29 83.53 59.98 87.26 59.98 87.26 46.99 84.14 46.99 84.14 54.45 84.23 55.9 79.12 46.99 75.51 46.99 75.51 59.98 75.51 59.98"/>
  <polygon class="cls-3" points="95.79 59.98 98.91 59.98 98.91 49.44 102.99 49.44 102.99 46.99 91.71 46.99 91.71 49.44 95.79 49.44 95.79 59.98 95.79 59.98"/>
</svg>