<svg xmlns="http://www.w3.org/2000/svg" width="50.509" height="50.759" viewBox="0 0 50.509 50.759">
  <g id="Group_133" data-name="Group 133" transform="translate(-1137.845 -12286.956)">
    <path id="Path_230" data-name="Path 230" d="M1138.365,12312.681a24.668,24.668,0,0,1,2.852-12.062,24.245,24.245,0,0,1,5.234-6.756,24.6,24.6,0,0,1,12.525-6.08,24.706,24.706,0,0,1,13.928,1.75,25.113,25.113,0,0,1,5.555,3.342,24.473,24.473,0,0,1,4.459,4.617,24.061,24.061,0,0,1,3.981,8.1,30.026,30.026,0,0,1,.881,5.129,23.659,23.659,0,0,1-.707,7.717,23.962,23.962,0,0,1-4.518,9.245,24.652,24.652,0,0,1-6.249,5.64,23.713,23.713,0,0,1-7.9,3.254c-1.235.259-2.5.365-3.759.52a11,11,0,0,1-1.649.113,25.286,25.286,0,0,1-12.339-3.409,24.816,24.816,0,0,1-11.518-15.194A20.259,20.259,0,0,1,1138.365,12312.681Zm27.275,8.983q0-3.56,0-7.119c0-.716.058-.772.765-.776,1.268-.006,2.536,0,3.805,0,.616,0,.726-.088.8-.675.208-1.6.4-3.2.6-4.8.047-.388-.034-.484-.411-.521-.183-.018-.368-.009-.553-.009-1.452,0-2.905,0-4.357,0-.528,0-.637-.082-.641-.522-.012-1.432-.045-2.865.015-4.295a2.163,2.163,0,0,1,1.945-2.188,6.335,6.335,0,0,1,1.095-.111c.879-.017,1.76,0,2.639-.013.436-.007.544-.093.547-.484.013-1.472,0-2.945,0-4.419a.494.494,0,0,0-.467-.541,3.7,3.7,0,0,0-.425-.059c-1.245-.046-2.491-.127-3.736-.121a8.678,8.678,0,0,0-4.365,1.046,6.277,6.277,0,0,0-2.471,2.489,8.845,8.845,0,0,0-1.046,4.3q0,2,0,3.99c0,.163,0,.327-.009.491a.4.4,0,0,1-.419.429c-.163.008-.327.011-.49.011-1.228,0-2.455,0-3.683,0-.6,0-.676.073-.679.672q-.011,2.333,0,4.664c0,.594.079.665.684.669,1.187.008,2.373,0,3.56,0,1.038,0,1.039,0,1.039,1.058q0,6.936,0,13.871c0,.911,0,.913.933.914q2.209,0,4.419,0c.164,0,.328,0,.491-.013a.377.377,0,0,0,.4-.384c.012-.183.014-.368.014-.552Q1165.641,12325.163,1165.64,12321.664Z" fill="none" stroke="#fff" stroke-width="1"/>
    <path id="Path_231" data-name="Path 231" d="M1165.641,12321.664q0,3.5,0,7c0,.184,0,.369-.014.552a.377.377,0,0,1-.4.384c-.163.01-.327.013-.491.013q-2.21,0-4.419,0c-.93,0-.933,0-.933-.914q0-6.935,0-13.871c0-1.057,0-1.058-1.039-1.058-1.187,0-2.373,0-3.56,0-.6,0-.681-.075-.684-.669q-.011-2.331,0-4.664c0-.6.074-.668.679-.672,1.228-.008,2.455,0,3.683,0,.163,0,.327,0,.49-.011a.4.4,0,0,0,.419-.429c.006-.164.009-.328.009-.491q0-2,0-3.99a8.845,8.845,0,0,1,1.046-4.3,6.277,6.277,0,0,1,2.471-2.489,8.678,8.678,0,0,1,4.365-1.046c1.245-.006,2.491.075,3.736.121a3.7,3.7,0,0,1,.425.059.494.494,0,0,1,.467.541c0,1.474.009,2.947,0,4.419,0,.392-.111.478-.547.484-.879.015-1.76,0-2.639.013a6.335,6.335,0,0,0-1.095.111,2.163,2.163,0,0,0-1.945,2.188c-.06,1.43-.027,2.863-.015,4.295,0,.44.113.52.641.522,1.452.009,2.905,0,4.357,0,.185,0,.37-.009.553.009.377.036.458.133.411.521-.194,1.6-.389,3.2-.6,4.8-.075.587-.185.672-.8.675-1.269.006-2.537,0-3.805,0-.707,0-.764.061-.765.776Q1165.636,12318.1,1165.641,12321.664Z" fill="none" stroke="#fff" stroke-width="1"/>
  </g>
</svg>
