<?xml version="1.0" encoding="utf-8"?>
<!-- Generator: Adobe Illustrator 27.5.0, SVG Export Plug-In . SVG Version: 6.00 Build 0)  -->
<svg version="1.1" id="Layer_1" xmlns="http://www.w3.org/2000/svg" xmlns:xlink="http://www.w3.org/1999/xlink" x="0px" y="0px"
	 viewBox="0 0 240 240" style="enable-background:new 0 0 240 240;" xml:space="preserve">
<style type="text/css">
	.st0{fill:#E0E0E0;}
	.st1{fill:#FFFFFF;}
	.st2{clip-path:url(#SVGID_00000161604713561442735860000012763678116131652736_);fill:#FBBC05;}
	.st3{clip-path:url(#SVGID_00000005951397029087516310000017678100624985853062_);fill:#EA4335;}
	.st4{clip-path:url(#SVGID_00000028325183244445671240000009767342931533228460_);fill:#34A853;}
	.st5{clip-path:url(#SVGID_00000047060768882872137630000004256284071051351467_);fill:#4285F4;}
</style>
<circle class="st0" cx="119.5" cy="119.5" r="100.5"/>
<circle class="st1" cx="119.5" cy="118" r="99"/>
<g>
	<defs>
		<path id="SVGID_1_" d="M183.6,106.4H121v26h36c-3.4,16.5-17.4,26-36,26c-22,0-39.7-17.7-39.7-39.7S99,78.9,121,78.9
			c9.5,0,18,3.4,24.7,8.9l19.6-19.6c-11.9-10.4-27.2-16.8-44.3-16.8c-37.3,0-67.2,29.9-67.2,67.2s29.9,67.2,67.2,67.2
			c33.6,0,64.1-24.4,64.1-67.2C185.2,114.6,184.6,110.3,183.6,106.4z"/>
	</defs>
	<clipPath id="SVGID_00000147932657858358570080000016903350843906763180_">
		<use xlink:href="#SVGID_1_"  style="overflow:visible;"/>
	</clipPath>
	<path style="clip-path:url(#SVGID_00000147932657858358570080000016903350843906763180_);fill:#FBBC05;" d="M47.7,158.3V78.9
		l51.9,39.7L47.7,158.3z"/>
</g>
<g>
	<defs>
		<path id="SVGID_00000126283448388546988650000003941322359340699320_" d="M183.6,106.4H121v26h36c-3.4,16.5-17.4,26-36,26
			c-22,0-39.7-17.7-39.7-39.7S99,78.9,121,78.9c9.5,0,18,3.4,24.7,8.9l19.6-19.6c-11.9-10.4-27.2-16.8-44.3-16.8
			c-37.3,0-67.2,29.9-67.2,67.2s29.9,67.2,67.2,67.2c33.6,0,64.1-24.4,64.1-67.2C185.2,114.6,184.6,110.3,183.6,106.4z"/>
	</defs>
	<clipPath id="SVGID_00000119096424415427136520000014017437382107201434_">
		<use xlink:href="#SVGID_00000126283448388546988650000003941322359340699320_"  style="overflow:visible;"/>
	</clipPath>
	<path style="clip-path:url(#SVGID_00000119096424415427136520000014017437382107201434_);fill:#EA4335;" d="M47.7,78.9l51.9,39.7
		L121,99.9L194.3,88V45.3H47.7V78.9z"/>
</g>
<g>
	<defs>
		<path id="SVGID_00000103950053758579174910000010776582329993076380_" d="M183.6,106.4H121v26h36c-3.4,16.5-17.4,26-36,26
			c-22,0-39.7-17.7-39.7-39.7S99,78.9,121,78.9c9.5,0,18,3.4,24.7,8.9l19.6-19.6c-11.9-10.4-27.2-16.8-44.3-16.8
			c-37.3,0-67.2,29.9-67.2,67.2s29.9,67.2,67.2,67.2c33.6,0,64.1-24.4,64.1-67.2C185.2,114.6,184.6,110.3,183.6,106.4z"/>
	</defs>
	<clipPath id="SVGID_00000174596235579552532890000004033132985953972670_">
		<use xlink:href="#SVGID_00000103950053758579174910000010776582329993076380_"  style="overflow:visible;"/>
	</clipPath>
	<path style="clip-path:url(#SVGID_00000174596235579552532890000004033132985953972670_);fill:#34A853;" d="M47.7,158.3L139.4,88
		l24.1,3.1l30.9-45.8v146.6H47.7V158.3z"/>
</g>
<g>
	<g>
		<defs>
			<path id="SVGID_00000036252013897360997040000000149458259845976744_" d="M183.6,106.4H121v26h36c-3.4,16.5-17.4,26-36,26
				c-22,0-39.7-17.7-39.7-39.7S99,78.9,121,78.9c9.5,0,18,3.4,24.7,8.9l19.6-19.6c-11.9-10.4-27.2-16.8-44.3-16.8
				c-37.3,0-67.2,29.9-67.2,67.2s29.9,67.2,67.2,67.2c33.6,0,64.1-24.4,64.1-67.2C185.2,114.6,184.6,110.3,183.6,106.4z"/>
		</defs>
		<clipPath id="SVGID_00000054230285038664889270000000379234755591752861_">
			<use xlink:href="#SVGID_00000036252013897360997040000000149458259845976744_"  style="overflow:visible;"/>
		</clipPath>
		<path style="clip-path:url(#SVGID_00000054230285038664889270000000379234755591752861_);fill:#4285F4;" d="M194.3,191.9
			l-94.7-73.3l-12.2-9.2l106.9-30.5V191.9z"/>
	</g>
</g>
</svg>
