<?xml version="1.0" encoding="UTF-8"?>
<svg id="Layer_1" data-name="Layer 1" xmlns="http://www.w3.org/2000/svg" viewBox="0 0 102.11 79.31">
  <defs>
    <style>
      .cls-1 {
        fill: #231f20;
      }

      .cls-1, .cls-2, .cls-3, .cls-4 {
        stroke-width: 0px;
      }

      .cls-2 {
        fill: #d3d2c2;
      }

      .cls-3 {
        fill: #be1e2d;
      }

      .cls-4 {
        fill: #fff;
      }
    </style>
  </defs>
  <path class="cls-4" d="m41.53,68.61h1.43l3.09,8.39h-1.63l-.61-1.79h-3.2l-.64,1.79h-1.56l3.12-8.39h0Zm1.83,5.26l-1.14-3.36h-.02l-1.15,3.36h2.32Z"/>
  <path class="cls-4" d="m46.82,77.86l1.36-.48c.28.55.69.79,1.21.79.87,0,1.35-.55,1.35-1.4v-.64c-.39.53-.96.79-1.63.79-1.46,0-2.39-.82-2.39-2.36v-1.15c0-1.63,1.03-2.54,2.36-2.54.71,0,1.34.38,1.66.84v-.72h1.39v5.51c0,1.4-.79,2.82-2.87,2.82-.98,0-2.14-.47-2.45-1.46h0Zm3.93-3.27v-1.34c0-.73-.56-1.15-1.31-1.15-.6,0-1.26.32-1.26,1.19v1.33c0,.73.56,1.16,1.31,1.16.6,0,1.26-.32,1.26-1.19h0Z"/>
  <path class="cls-4" d="m53.58,70.98h1.4v1h.02c.35-.64,1.25-1.12,1.96-1.12.15,0,.33,0,.48.04v1.32c-.19-.04-.34-.04-.54-.04-1.08,0-1.89.62-1.89,1.74v3.08h-1.43v-6.02h0Z"/>
  <path class="cls-4" d="m58.02,75.29c0-1.16,1.06-1.86,2.22-1.86h1.6v-.55c0-.64-.42-.91-1.15-.91-.62,0-1.08.21-1.08.6v.21h-1.29v-.17c0-1.32,1.26-1.76,2.39-1.76,1.34,0,2.58.45,2.58,1.92v2.93c0,.27.03,1.16.11,1.29h-1.42c-.02-.09-.05-.46-.06-.55h-.02c-.53.55-.99.67-1.76.67-1.25,0-2.09-.68-2.09-1.82h0Zm3.82-.52v-.29h-1.41c-.61,0-1.01.21-1.01.74s.41.76,1.08.76c1.15,0,1.34-.57,1.34-1.21h0Z"/>
  <polygon class="cls-2" points="33.08 18.88 43.86 18.88 43.86 29.67 33.08 29.67 33.08 18.88 33.08 18.88"/>
  <polygon class="cls-1" points="33.08 12.59 43.86 12.59 43.86 17.08 33.08 17.08 33.08 12.59 33.08 12.59"/>
  <polygon class="cls-1" points="33.08 31.47 43.86 31.47 43.86 35.96 33.08 35.96 33.08 31.47 33.08 31.47"/>
  <polygon class="cls-1" points="58.25 0 69.03 0 69.03 10.79 58.25 10.79 58.25 0 58.25 0"/>
  <polygon class="cls-2" points="58.25 12.59 69.03 12.59 69.03 35.96 58.25 35.96 58.25 12.59 58.25 12.59"/>
  <polygon class="cls-3" points="33.08 0 56.45 0 56.45 35.96 45.66 35.96 45.66 10.79 33.08 10.79 33.08 0 33.08 0"/>
  <polygon class="cls-3" points="4.04 59.47 7.14 59.47 7.14 49.02 11.18 49.02 11.18 46.6 0 46.6 0 49.02 4.04 49.02 4.04 59.47 4.04 59.47"/>
  <path class="cls-3" d="m20.77,52.86c1.84,0,2.62-.77,2.62-1.98,0-1.29-.53-1.84-2.19-1.84h-1.49v3.82h1.06Zm3.76,6.61c-.79-1.13-3.11-4.47-3.11-4.47-.22.02-.53.02-.76.02h-.95v4.44h-3.11v-12.87h5.01c2.89,0,4.97,1.33,4.97,4.2,0,1.44-.69,2.7-2.07,3.48,0,0,3.69,4.98,3.84,5.19h-3.81Z"/>
  <polygon class="cls-3" points="33.11 59.47 36.21 59.47 36.21 46.6 33.11 46.6 33.11 59.47 33.11 59.47"/>
  <path class="cls-3" d="m46.15,57.05v-8.03h1.47c3.09,0,4.48,1.38,4.48,4.15,0,2.53-1.15,3.88-4.11,3.88h-1.84Zm-3.08,2.42h4.72c4.64,0,7.41-2.02,7.41-6.48s-3.06-6.39-7.52-6.39h-4.61v12.87h0Z"/>
  <polygon class="cls-3" points="60.56 59.47 69.42 59.47 69.42 57.05 63.65 57.05 63.65 54.13 68.61 54.13 68.61 51.87 63.65 51.87 63.65 49.02 69 49.02 69 46.6 60.56 46.6 60.56 59.47 60.56 59.47"/>
  <polygon class="cls-3" points="74.87 59.47 77.96 59.47 77.96 52.57 77.89 50.86 82.82 59.47 86.52 59.47 86.52 46.6 83.42 46.6 83.42 53.99 83.51 55.42 78.45 46.6 74.87 46.6 74.87 59.47 74.87 59.47"/>
  <polygon class="cls-3" points="94.97 59.47 98.07 59.47 98.07 49.02 102.11 49.02 102.11 46.6 90.93 46.6 90.93 49.02 94.97 49.02 94.97 59.47 94.97 59.47"/>
</svg>