<svg xmlns="http://www.w3.org/2000/svg" width="50.603" height="50.813" viewBox="0 0 50.603 50.813">
  <g id="Group_256" data-name="Group 256" transform="translate(-1903.948 -1668.366)">
    <g id="Group_177" data-name="Group 177" transform="translate(536.234 -10618.59)">
      <path id="Path_234" data-name="Path 234" d="M1393.1,12287.456a24.412,24.412,0,0,1,10.23,2.255,25.282,25.282,0,0,1,6.46,4.286,24.265,24.265,0,0,1,5.448,7.263,23.387,23.387,0,0,1,2.366,8.083,24.313,24.313,0,0,1,.212,3.114,26.842,26.842,0,0,1-1.134,7.245,25.446,25.446,0,0,1-3.262,6.771,23.632,23.632,0,0,1-3.991,4.552,24.111,24.111,0,0,1-4.875,3.383,36.145,36.145,0,0,1-3.949,1.672,19.782,19.782,0,0,1-4.175.975,26.816,26.816,0,0,1-5.81.113,23.56,23.56,0,0,1-4.572-.864,24.763,24.763,0,0,1-11.671-7.476,24.011,24.011,0,0,1-4.54-7.521,24.616,24.616,0,0,1-1.257-4.609,24.16,24.16,0,0,1-.264-6.351,25.366,25.366,0,0,1,1.8-7.482,24.1,24.1,0,0,1,3.607-6.036,29.329,29.329,0,0,1,2.129-2.368,24.839,24.839,0,0,1,12.253-6.475,18.3,18.3,0,0,1,1.874-.317C1391.018,12287.567,1392.059,12287.523,1393.1,12287.456Z" fill="none" stroke="#fff" stroke-width="1"/>
    </g>
    <g id="Group_255" data-name="Group 255" transform="translate(-1 -1)">
      <path id="Path_408" data-name="Path 408" d="M3.444,6.89A3.323,3.323,0,0,1,1.01,5.875,3.344,3.344,0,0,1,0,3.436,3.319,3.319,0,0,1,1.011,1.018,3.327,3.327,0,0,1,3.444,0,3.325,3.325,0,0,1,5.876,1.018,3.319,3.319,0,0,1,6.887,3.436,3.343,3.343,0,0,1,5.876,5.875,3.32,3.32,0,0,1,3.444,6.89m0-6.447a2.864,2.864,0,0,0-2.121.885A2.858,2.858,0,0,0,.44,3.436a2.881,2.881,0,0,0,.883,2.128,2.861,2.861,0,0,0,2.121.886,2.858,2.858,0,0,0,2.12-.886,2.88,2.88,0,0,0,.883-2.128,2.857,2.857,0,0,0-.883-2.108A2.862,2.862,0,0,0,3.444.443" transform="translate(1917.452 1680.044)" fill="#fff" stroke="#fff" stroke-width="0.3"/>
      <path id="Path_409" data-name="Path 409" d="M30.578,551.981H24.515V533.6h6.063Zm-5.623-.44h5.184V534.036H24.955Z" transform="translate(1893.35 1155.417)" fill="#fff" stroke="#fff" stroke-width="0.3"/>
      <path id="Path_410" data-name="Path 410" d="M592.182,526.9h-5.863V516.646a3.861,3.861,0,0,0-.8-2.47,2.311,2.311,0,0,0-1.882-.981,2.6,2.6,0,0,0-2.219,1.252,5.754,5.754,0,0,0-.9,3.347v9.1h-5.779V508.521h5.779v1.852a8.35,8.35,0,0,1,5.516-2.29,5.439,5.439,0,0,1,4.416,2.19,8.612,8.612,0,0,1,1.727,5.518Zm-5.423-.44h4.983V515.791a8.187,8.187,0,0,0-1.631-5.244,4.958,4.958,0,0,0-4.072-2.024,8.149,8.149,0,0,0-5.585,2.506l-.37.348v-2.415h-4.9v17.5h4.9v-8.665a6.181,6.181,0,0,1,.978-3.6,3.045,3.045,0,0,1,2.58-1.44,2.759,2.759,0,0,1,2.226,1.148,4.29,4.29,0,0,1,.892,2.743Z" transform="translate(1352.365 1180.501)" fill="#fff" stroke="#fff" stroke-width="0.3"/>
    </g>
  </g>
</svg>
