<svg id="noun-chat-icons-5736143" xmlns="http://www.w3.org/2000/svg" width="132" height="109.244" viewBox="0 0 132 109.244">
  <path id="Path_12" data-name="Path 12" d="M219.148,69.993H105.354a9.225,9.225,0,0,0-9.1,9.331v68.23a9.225,9.225,0,0,0,9.1,9.331H204.99a4.534,4.534,0,0,1,3.505,1.729l15.7,19.778a2.252,2.252,0,0,0,1.775.842,2.2,2.2,0,0,0,.751-.136,2.258,2.258,0,0,0,1.525-2.14V79.322a9.225,9.225,0,0,0-9.1-9.331ZM223.7,170.429l-11.653-14.657a8.962,8.962,0,0,0-7.055-3.436H105.355a4.676,4.676,0,0,1-4.552-4.779V79.326a4.676,4.676,0,0,1,4.552-4.779H219.149a4.676,4.676,0,0,1,4.552,4.779Z" transform="translate(-96.25 -69.991)" fill="#942132"/>
  <path id="Path_13" data-name="Path 13" d="M304.681,176.4a15.931,15.931,0,1,0,15.931,15.931A15.949,15.949,0,0,0,304.681,176.4Zm0,27.311a11.379,11.379,0,1,1,11.379-11.379A11.384,11.384,0,0,1,304.681,203.711Z" transform="translate(-238.681 -148.723)" fill="#942132"/>
  <path id="Path_14" data-name="Path 14" d="M453.431,176.4a15.931,15.931,0,1,0,15.931,15.931A15.949,15.949,0,0,0,453.431,176.4Zm0,27.311a11.379,11.379,0,1,1,11.379-11.379A11.384,11.384,0,0,1,453.431,203.711Z" transform="translate(-348.741 -148.723)" fill="#942132"/>
  <path id="Path_15" data-name="Path 15" d="M155.931,176.4a15.931,15.931,0,1,0,15.931,15.931A15.949,15.949,0,0,0,155.931,176.4Zm0,27.311a11.379,11.379,0,1,1,11.379-11.379A11.384,11.384,0,0,1,155.931,203.711Z" transform="translate(-128.621 -148.723)" fill="#942132"/>
</svg>
