<svg xmlns="http://www.w3.org/2000/svg" width="50.505" height="50.863" viewBox="0 0 50.505 50.863">
  <g id="Group_136" data-name="Group 136" transform="translate(-1291.126 -12286.806)">
    <path id="Path_238" data-name="Path 238" d="M1330.8,12305.669a30.318,30.318,0,0,0-.228-3.665,9.011,9.011,0,0,0-2.312-5.174,8.747,8.747,0,0,0-4.413-2.515,19.591,19.591,0,0,0-4.417-.424c-2.857-.054-5.715-.01-8.573-.021a36.5,36.5,0,0,0-4.656.234,8.994,8.994,0,0,0-4.369,1.656,8.5,8.5,0,0,0-3.321,5.325,19.8,19.8,0,0,0-.344,3.876c0,1.7,0,3.408,0,5.11l-.054,0c.054,2.4.112,4.794.159,7.191a10.852,10.852,0,0,0,.809,4.014,8.162,8.162,0,0,0,5.065,4.779,13.136,13.136,0,0,0,4.322.658c4.248.006,8.5.137,12.743-.074a13.719,13.719,0,0,0,3.035-.436,8.262,8.262,0,0,0,6.011-5.918C1330.678,12318.892,1330.827,12309.112,1330.8,12305.669Z" transform="translate(1.912 1.923)" fill="none" stroke="#fff" stroke-width="1"/>
    <path id="Path_239" data-name="Path 239" d="M1325.923,12300.3a1.9,1.9,0,0,0,.03,3.8,1.9,1.9,0,0,0-.03-3.8Z" transform="translate(-0.806 1.249)" fill="#fff"/>
    <path id="Path_240" data-name="Path 240" d="M1315.361,12302.87a8.267,8.267,0,0,0-8.291,8.415,8.328,8.328,0,1,0,8.291-8.415Z" transform="translate(0.974 0.98)" fill="none" stroke="#fff" stroke-width="1"/>
    <path id="Path_241" data-name="Path 241" d="M1341.116,12312.086a23.385,23.385,0,0,1-1.242,7.967,25.167,25.167,0,0,1-4.175,7.735,24,24,0,0,1-3.694,3.742,24.636,24.636,0,0,1-8.3,4.508,21.582,21.582,0,0,1-5.348,1.021c-.775.04-1.551.124-2.324.108a24.792,24.792,0,0,1-5.578-.748,23.5,23.5,0,0,1-5.215-1.957,25.427,25.427,0,0,1-10.186-9.661,24.672,24.672,0,0,1-3.192-9.4,26,26,0,0,1-.229-3.79,26.362,26.362,0,0,1,.527-4.5,24.8,24.8,0,0,1,3.748-8.874,23.406,23.406,0,0,1,3.658-4.28,24.858,24.858,0,0,1,7.227-4.674,24.288,24.288,0,0,1,6.436-1.738,23.42,23.42,0,0,1,4.465-.2,25.434,25.434,0,0,1,8.044,1.8,24.727,24.727,0,0,1,6.638,4.017,24.28,24.28,0,0,1,5.328,6.36,25.681,25.681,0,0,1,2.875,7.34A20.071,20.071,0,0,1,1341.116,12312.086Z" fill="none" stroke="#fff" stroke-width="1"/>
  </g>
</svg>
