<?xml version="1.0" encoding="UTF-8"?>
<svg id="Layer_1" data-name="Layer 1" xmlns="http://www.w3.org/2000/svg" viewBox="0 0 102.49 79.58">
  <defs>
    <style>
      .cls-1 {
        fill: #231f20;
      }

      .cls-1, .cls-2, .cls-3 {
        stroke-width: 0px;
      }

      .cls-2 {
        fill: #d3d2c2;
      }

      .cls-3 {
        fill: #be1e2d;
      }
    </style>
  </defs>
  <path class="cls-1" d="m34.39,74.7v-.54h1.57v.41c0,.67.19,1.45,1.42,1.45.81,0,1.23-.73,1.23-1.59v-5.54h1.57v5.79c0,1.38-1.07,2.76-2.88,2.76s-2.9-.84-2.9-2.74h0Z"/>
  <path class="cls-1" d="m41.34,75.59c0-1.17,1.06-1.87,2.23-1.87h1.61v-.55c0-.64-.42-.91-1.16-.91-.63,0-1.09.21-1.09.6v.21h-1.3v-.16c0-1.32,1.26-1.77,2.4-1.77,1.35,0,2.59.45,2.59,1.92v2.94c0,.27.04,1.17.11,1.3h-1.43c-.02-.09-.05-.46-.06-.55h-.02c-.53.55-.99.67-1.77.67-1.25,0-2.1-.68-2.1-1.83h0Zm3.84-.52v-.29h-1.42c-.61,0-1.02.21-1.02.74s.41.77,1.09.77c1.16,0,1.35-.57,1.35-1.22h0Z"/>
  <path class="cls-1" d="m48.12,68.81h1.44v1.53h-1.44v-1.53h0Zm0,2.46h1.44v6.04h-1.44v-6.04h0Z"/>
  <path class="cls-1" d="m51.12,71.26h1.4v.7h.01c.47-.57,1.16-.82,1.7-.82,1.32,0,2.38.84,2.38,2.38v1.46c0,1.64-1.15,2.46-2.49,2.46-.67,0-1.23-.34-1.53-.74h-.04v2.88h-1.44v-8.32h0Zm4.04,3.78v-1.5c0-.73-.57-1.16-1.31-1.16-.6,0-1.29.4-1.29,1.27v1.41c0,.73.59,1.17,1.33,1.17.6,0,1.26-.32,1.26-1.19h0Z"/>
  <path class="cls-1" d="m57.83,75.12v-3.86h1.44v3.51c0,.91.4,1.39,1.13,1.39.79,0,1.24-.5,1.24-1.52v-3.38h1.44v6.04h-1.39v-.74h-.04c-.4.58-1.03.86-1.7.86-1.36,0-2.13-.87-2.13-2.3h0Z"/>
  <path class="cls-1" d="m64.5,71.26h1.41v1h.02c.35-.64,1.25-1.12,1.97-1.12.15,0,.33,0,.48.04v1.32c-.19-.04-.34-.04-.54-.04-1.09,0-1.9.63-1.9,1.75v3.09h-1.44v-6.04h0Z"/>
  <polygon class="cls-2" points="33.2 18.95 44.03 18.95 44.03 29.78 33.2 29.78 33.2 18.95 33.2 18.95"/>
  <polygon class="cls-1" points="33.2 12.63 44.03 12.63 44.03 17.15 33.2 17.15 33.2 12.63 33.2 12.63"/>
  <polygon class="cls-1" points="33.2 31.58 44.03 31.58 44.03 36.09 33.2 36.09 33.2 31.58 33.2 31.58"/>
  <polygon class="cls-1" points="58.47 0 69.29 0 69.29 10.83 58.47 10.83 58.47 0 58.47 0"/>
  <polygon class="cls-2" points="58.47 12.63 69.29 12.63 69.29 36.09 58.47 36.09 58.47 12.63 58.47 12.63"/>
  <polygon class="cls-3" points="33.2 0 56.66 0 56.66 36.1 45.83 36.1 45.83 10.83 33.2 10.83 33.2 0 33.2 0"/>
  <polygon class="cls-3" points="4.06 59.69 7.16 59.69 7.16 49.2 11.22 49.2 11.22 46.77 0 46.77 0 49.2 4.06 49.2 4.06 59.69 4.06 59.69"/>
  <path class="cls-3" d="m20.85,53.06c1.85,0,2.63-.77,2.63-1.99,0-1.3-.53-1.85-2.19-1.85h-1.5v3.84h1.06Zm3.78,6.63c-.79-1.13-3.12-4.48-3.12-4.48-.22.02-.53.02-.77.02h-.95v4.46h-3.12v-12.92h5.02c2.91,0,4.99,1.34,4.99,4.22,0,1.45-.69,2.71-2.08,3.49,0,0,3.7,5,3.86,5.21h-3.83Z"/>
  <polygon class="cls-3" points="33.24 59.69 36.34 59.69 36.34 46.77 33.24 46.77 33.24 59.69 33.24 59.69"/>
  <path class="cls-3" d="m46.33,57.26v-8.06h1.48c3.11,0,4.5,1.39,4.5,4.17,0,2.54-1.15,3.89-4.13,3.89h-1.85Zm-3.09,2.43h4.73c4.66,0,7.44-2.03,7.44-6.5s-3.07-6.42-7.55-6.42h-4.62v12.92h0Z"/>
  <polygon class="cls-3" points="60.79 59.69 69.69 59.69 69.69 57.26 63.89 57.26 63.89 54.34 68.86 54.34 68.86 52.07 63.89 52.07 63.89 49.2 69.26 49.2 69.26 46.77 60.79 46.77 60.79 59.69 60.79 59.69"/>
  <polygon class="cls-3" points="75.15 59.69 78.25 59.69 78.25 52.77 78.18 51.05 83.13 59.69 86.84 59.69 86.84 46.77 83.74 46.77 83.74 54.19 83.83 55.63 78.75 46.77 75.15 46.77 75.15 59.69 75.15 59.69"/>
  <polygon class="cls-3" points="95.33 59.69 98.44 59.69 98.44 49.2 102.49 49.2 102.49 46.77 91.27 46.77 91.27 49.2 95.33 49.2 95.33 59.69 95.33 59.69"/>
</svg>