<svg xmlns="http://www.w3.org/2000/svg" width="25.078" height="25.078" viewBox="0 0 25.078 25.078">
  <path id="Icon_ionic-md-call" data-name="Icon ionic-md-call" d="M27.241,21.221a15.7,15.7,0,0,1-4.749-.735,1.251,1.251,0,0,0-1.338.334l-2.943,2.943a20.116,20.116,0,0,1-8.829-8.829l2.943-2.943a1.394,1.394,0,0,0,.334-1.338,14.548,14.548,0,0,1-.8-4.816A1.342,1.342,0,0,0,10.52,4.5H5.838A1.342,1.342,0,0,0,4.5,5.838,22.722,22.722,0,0,0,27.241,28.579a1.342,1.342,0,0,0,1.338-1.338V22.559A1.342,1.342,0,0,0,27.241,21.221Z" transform="translate(-4 -4)" fill="none" stroke="#ae2132" stroke-width="1"/>
</svg>
