<?xml version="1.0" encoding="UTF-8"?>
<svg id="Layer_1" data-name="Layer 1" xmlns="http://www.w3.org/2000/svg" viewBox="0 0 102.11 79.3">
  <defs>
    <style>
      .cls-1 {
        fill: #231f20;
      }

      .cls-1, .cls-2, .cls-3 {
        stroke-width: 0px;
      }

      .cls-2 {
        fill: #d3d2c2;
      }

      .cls-3 {
        fill: #be1e2d;
      }
    </style>
  </defs>
  <polygon class="cls-1" points="22.8 68.61 24.37 68.61 24.37 72.03 27.72 72.03 27.72 68.61 29.28 68.61 29.28 77 27.72 77 27.72 73.41 24.37 73.41 24.37 77 22.8 77 22.8 68.61 22.8 68.61"/>
  <path class="cls-1" d="m30.79,79.23v-1.21c.26.03.49.06.68.06.36,0,.59-.22.69-.51l.26-.72-2.22-5.88h1.56l1.41,4.12h.02l1.35-4.12h1.47l-2.55,7.02c-.34.95-1.03,1.31-1.96,1.31-.14,0-.47-.02-.72-.07h0Z"/>
  <path class="cls-1" d="m36.59,74.76v-1.46c0-1.63,1.14-2.45,2.48-2.45.67,0,1.22.34,1.53.74h.04v-2.99h1.43v8.39h-1.4v-.67h-.01c-.34.47-1.15.81-1.69.81-1.32,0-2.38-.83-2.38-2.38h0Zm4.05-.05v-1.48c0-.73-.59-1.16-1.33-1.16-.6,0-1.26.32-1.26,1.19v1.49c0,.73.56,1.15,1.31,1.15.6,0,1.28-.32,1.28-1.19h0Z"/>
  <path class="cls-1" d="m43.32,74.68v-1.18c0-1.69,1.27-2.63,2.76-2.63,1.31,0,2.6.76,2.6,2.36v1.16h-3.87v.33c0,.77.62,1.21,1.39,1.21.48,0,.99-.32,1.31-.78l1.11.64c-.47.94-1.42,1.34-2.48,1.34-1.48,0-2.81-.81-2.81-2.46h0Zm3.93-1.28v-.16c0-.82-.58-1.15-1.16-1.15s-1.27.33-1.27,1.23v.08h2.43Z"/>
  <path class="cls-1" d="m49.9,70.98h1.4v1h.02c.35-.64,1.25-1.12,1.96-1.12.15,0,.33,0,.48.03v1.32c-.19-.04-.34-.04-.54-.04-1.08,0-1.89.62-1.89,1.74v3.08h-1.43v-6.02h0Z"/>
  <path class="cls-1" d="m54.34,75.29c0-1.16,1.06-1.86,2.22-1.86h1.6v-.55c0-.64-.42-.91-1.15-.91-.62,0-1.08.21-1.08.6v.21h-1.29v-.17c0-1.32,1.26-1.76,2.39-1.76,1.34,0,2.58.45,2.58,1.92v2.93c0,.27.03,1.17.11,1.29h-1.42c-.02-.09-.05-.46-.06-.55h-.02c-.53.55-.99.67-1.76.67-1.25,0-2.09-.68-2.09-1.82h0Zm3.82-.52v-.29h-1.41c-.61,0-1.01.21-1.01.74s.41.76,1.08.76c1.15,0,1.34-.56,1.34-1.21h0Z"/>
  <path class="cls-1" d="m62.5,76.4h-.04v.6h-1.38v-8.39h1.43v3.06h.01c.45-.6,1.12-.81,1.66-.81,1.32,0,2.38.83,2.38,2.38v1.46c0,1.63-1.2,2.45-2.54,2.45-.67,0-1.22-.34-1.53-.74h0Zm2.61-1.66v-1.49c0-.73-.56-1.15-1.31-1.15-.6,0-1.28.41-1.28,1.28v1.39c0,.73.59,1.17,1.33,1.17.6,0,1.26-.32,1.26-1.19h0Z"/>
  <path class="cls-1" d="m67.46,75.29c0-1.16,1.06-1.86,2.22-1.86h1.6v-.55c0-.64-.42-.91-1.15-.91-.62,0-1.08.21-1.08.6v.21h-1.29v-.17c0-1.32,1.26-1.76,2.39-1.76,1.34,0,2.58.45,2.58,1.92v2.93c0,.27.04,1.17.11,1.29h-1.42c-.02-.09-.05-.46-.06-.55h-.02c-.53.55-.99.67-1.76.67-1.25,0-2.09-.68-2.09-1.82h0Zm3.82-.52v-.29h-1.41c-.61,0-1.01.21-1.01.74s.41.76,1.08.76c1.15,0,1.34-.56,1.34-1.21h0Z"/>
  <path class="cls-1" d="m73.93,74.76v-1.46c0-1.63,1.14-2.45,2.48-2.45.67,0,1.22.34,1.53.74h.04v-2.99h1.43v8.39h-1.4v-.67h-.01c-.34.47-1.15.81-1.69.81-1.32,0-2.38-.83-2.38-2.38h0Zm4.05-.05v-1.48c0-.73-.59-1.16-1.33-1.16-.6,0-1.26.32-1.26,1.19v1.49c0,.73.56,1.15,1.31,1.15.6,0,1.28-.32,1.28-1.19h0Z"/>
  <polygon class="cls-2" points="33.08 18.88 43.86 18.88 43.86 29.67 33.08 29.67 33.08 18.88 33.08 18.88"/>
  <polygon class="cls-1" points="33.08 12.59 43.86 12.59 43.86 17.08 33.08 17.08 33.08 12.59 33.08 12.59"/>
  <polygon class="cls-1" points="33.08 31.47 43.86 31.47 43.86 35.96 33.08 35.96 33.08 31.47 33.08 31.47"/>
  <polygon class="cls-1" points="58.25 0 69.04 0 69.04 10.79 58.25 10.79 58.25 0 58.25 0"/>
  <polygon class="cls-2" points="58.25 12.59 69.04 12.59 69.04 35.96 58.25 35.96 58.25 12.59 58.25 12.59"/>
  <polygon class="cls-3" points="33.08 0 56.45 0 56.45 35.96 45.66 35.96 45.66 10.79 33.08 10.79 33.08 0 33.08 0"/>
  <polygon class="cls-3" points="4.04 59.47 7.14 59.47 7.14 49.02 11.18 49.02 11.18 46.6 0 46.6 0 49.02 4.04 49.02 4.04 59.47 4.04 59.47"/>
  <path class="cls-3" d="m20.77,52.86c1.84,0,2.62-.77,2.62-1.98,0-1.29-.53-1.84-2.19-1.84h-1.49v3.82h1.06Zm3.76,6.61c-.79-1.13-3.11-4.47-3.11-4.47-.22.02-.53.02-.76.02h-.95v4.44h-3.11v-12.87h5.01c2.89,0,4.97,1.33,4.97,4.2,0,1.44-.69,2.7-2.07,3.48,0,0,3.69,4.98,3.84,5.19h-3.81Z"/>
  <polygon class="cls-3" points="33.11 59.47 36.21 59.47 36.21 46.6 33.11 46.6 33.11 59.47 33.11 59.47"/>
  <path class="cls-3" d="m46.15,57.05v-8.03h1.47c3.1,0,4.48,1.38,4.48,4.15,0,2.53-1.15,3.88-4.11,3.88h-1.84Zm-3.08,2.42h4.72c4.64,0,7.41-2.02,7.41-6.48s-3.06-6.39-7.52-6.39h-4.61v12.87h0Z"/>
  <polygon class="cls-3" points="60.56 59.47 69.42 59.47 69.42 57.05 63.65 57.05 63.65 54.13 68.61 54.13 68.61 51.87 63.65 51.87 63.65 49.02 69 49.02 69 46.6 60.56 46.6 60.56 59.47 60.56 59.47"/>
  <polygon class="cls-3" points="74.87 59.47 77.96 59.47 77.96 52.57 77.89 50.86 82.82 59.47 86.52 59.47 86.52 46.6 83.42 46.6 83.42 53.99 83.51 55.42 78.45 46.6 74.87 46.6 74.87 59.47 74.87 59.47"/>
  <polygon class="cls-3" points="94.97 59.47 98.07 59.47 98.07 49.02 102.11 49.02 102.11 46.6 90.93 46.6 90.93 49.02 94.97 49.02 94.97 59.47 94.97 59.47"/>
</svg>