<?xml version="1.0" encoding="utf-8"?>
<!-- Generator: Adobe Illustrator 27.5.0, SVG Export Plug-In . SVG Version: 6.00 Build 0)  -->
<svg version="1.1" id="Layer_1" xmlns="http://www.w3.org/2000/svg" xmlns:xlink="http://www.w3.org/1999/xlink" x="0px" y="0px"
	 viewBox="0 0 240 240" style="enable-background:new 0 0 240 240;" xml:space="preserve">
<style type="text/css">
	.st0{fill:url(#SVGID_1_);}
	.st1{fill:#FFFFFF;}
</style>
<linearGradient id="SVGID_1_" gradientUnits="userSpaceOnUse" x1="-53.207" y1="295.207" x2="-22.585" y2="264.585" gradientTransform="matrix(5 0 0 -5 316 1526)">
	<stop  offset="0" style="stop-color:#2AA4F4"/>
	<stop  offset="1" style="stop-color:#007AD9"/>
</linearGradient>
<path class="st0" d="M120,20C64.8,20,20,64.8,20,120s44.8,100,100,100s100-44.8,100-100S175.2,20,120,20z"/>
<path class="st1" d="M133.5,146.5h25.9l4.1-26.3h-29.9v-14.4c0-10.9,3.6-20.6,13.8-20.6h16.4V62.3c-2.9-0.4-9-1.2-20.5-1.2
	c-24.1,0-38.2,12.7-38.2,41.7v17.5H80.3v26.3H105v72.3c4.9,0.7,9.9,1.2,15,1.2c4.6,0,9.1-0.4,13.5-1V146.5z"/>
</svg>
